<mxfile host="app.diagrams.net" modified="2021-06-10T15:10:33.423Z" agent="5.0 (Macintosh; Intel Mac OS X 10_15_7) AppleWebKit/537.36 (KHTML, like Gecko) Chrome/90.0.4430.93 Safari/537.36" etag="396Q6YiRfwiLSCoqvMYv" version="13.9.2" type="github">
  <diagram id="uIJhFT-_cXbHEvmagF48" name="Page-1">
    <mxGraphModel dx="2125" dy="670" grid="1" gridSize="10" guides="1" tooltips="1" connect="1" arrows="1" fold="1" page="1" pageScale="1" pageWidth="827" pageHeight="800" math="0" shadow="0">
      <root>
        <mxCell id="0" />
        <mxCell id="1" parent="0" />
        <mxCell id="hbcPCMAPJA_j4FfzMth7-1" value="" style="rounded=0;whiteSpace=wrap;html=1;" vertex="1" parent="1">
          <mxGeometry x="190" y="199" width="480" height="90" as="geometry" />
        </mxCell>
        <mxCell id="hbcPCMAPJA_j4FfzMth7-2" value="" style="rounded=0;whiteSpace=wrap;html=1;fillColor=#f8cecc;strokeColor=#b85450;" vertex="1" parent="1">
          <mxGeometry x="40" y="214" width="120" height="60" as="geometry" />
        </mxCell>
        <mxCell id="hbcPCMAPJA_j4FfzMth7-3" value="" style="rounded=0;whiteSpace=wrap;html=1;fillColor=#dae8fc;strokeColor=#6c8ebf;" vertex="1" parent="1">
          <mxGeometry x="170" y="214" width="270" height="60" as="geometry" />
        </mxCell>
        <mxCell id="hbcPCMAPJA_j4FfzMth7-4" value="&lt;b&gt;&lt;font style=&quot;font-size: 20px&quot;&gt;执行removeTop()移除&lt;/font&gt;&lt;/b&gt;" style="text;html=1;strokeColor=none;fillColor=none;align=center;verticalAlign=middle;whiteSpace=wrap;rounded=0;" vertex="1" parent="1">
          <mxGeometry x="-5" y="320" width="230" height="80" as="geometry" />
        </mxCell>
        <mxCell id="hbcPCMAPJA_j4FfzMth7-7" value="" style="shape=flexArrow;endArrow=classic;html=1;" edge="1" parent="1" source="hbcPCMAPJA_j4FfzMth7-4">
          <mxGeometry width="50" height="50" relative="1" as="geometry">
            <mxPoint x="60" y="330" as="sourcePoint" />
            <mxPoint x="110" y="280" as="targetPoint" />
          </mxGeometry>
        </mxCell>
        <mxCell id="hbcPCMAPJA_j4FfzMth7-8" value="" style="shape=curlyBracket;whiteSpace=wrap;html=1;rounded=1;rotation=90;" vertex="1" parent="1">
          <mxGeometry x="362.5" y="-2.5" width="20" height="365" as="geometry" />
        </mxCell>
        <mxCell id="hbcPCMAPJA_j4FfzMth7-9" value="&lt;b&gt;&lt;font style=&quot;font-size: 22px&quot;&gt;offset&lt;/font&gt;&lt;/b&gt;" style="text;html=1;strokeColor=none;fillColor=none;align=center;verticalAlign=middle;whiteSpace=wrap;rounded=0;" vertex="1" parent="1">
          <mxGeometry x="315" y="130" width="80" height="40" as="geometry" />
        </mxCell>
        <mxCell id="hbcPCMAPJA_j4FfzMth7-10" value="" style="shape=curlyBracket;whiteSpace=wrap;html=1;rounded=1;rotation=-90;" vertex="1" parent="1">
          <mxGeometry x="420" y="70" width="20" height="480" as="geometry" />
        </mxCell>
        <mxCell id="hbcPCMAPJA_j4FfzMth7-11" value="&lt;b&gt;&lt;font style=&quot;font-size: 22px&quot;&gt;trackWidth&lt;/font&gt;&lt;/b&gt;" style="text;html=1;strokeColor=none;fillColor=none;align=center;verticalAlign=middle;whiteSpace=wrap;rounded=0;" vertex="1" parent="1">
          <mxGeometry x="390" y="330" width="80" height="40" as="geometry" />
        </mxCell>
        <mxCell id="hbcPCMAPJA_j4FfzMth7-12" value="" style="rounded=0;whiteSpace=wrap;html=1;fillColor=#d5e8d4;strokeColor=#82b366;" vertex="1" parent="1">
          <mxGeometry x="680" y="214" width="120" height="60" as="geometry" />
        </mxCell>
        <mxCell id="hbcPCMAPJA_j4FfzMth7-13" value="&lt;span style=&quot;font-size: 22px&quot;&gt;&lt;b&gt;执行push()添加弹幕到轨道&lt;/b&gt;&lt;/span&gt;" style="text;html=1;strokeColor=none;fillColor=none;align=center;verticalAlign=middle;whiteSpace=wrap;rounded=0;" vertex="1" parent="1">
          <mxGeometry x="555" y="100" width="370" height="40" as="geometry" />
        </mxCell>
        <mxCell id="hbcPCMAPJA_j4FfzMth7-14" value="" style="shape=flexArrow;endArrow=classic;html=1;exitX=0.484;exitY=1.075;exitDx=0;exitDy=0;exitPerimeter=0;" edge="1" parent="1" source="hbcPCMAPJA_j4FfzMth7-13" target="hbcPCMAPJA_j4FfzMth7-12">
          <mxGeometry width="50" height="50" relative="1" as="geometry">
            <mxPoint x="720" y="180" as="sourcePoint" />
            <mxPoint x="770" y="130" as="targetPoint" />
          </mxGeometry>
        </mxCell>
        <mxCell id="hbcPCMAPJA_j4FfzMth7-15" value="" style="rounded=0;whiteSpace=wrap;html=1;fillColor=#dae8fc;strokeColor=#6c8ebf;" vertex="1" parent="1">
          <mxGeometry x="470" y="214" width="80" height="60" as="geometry" />
        </mxCell>
      </root>
    </mxGraphModel>
  </diagram>
</mxfile>
